<svg width="78" height="20" viewBox="0 0 78 20" fill="none" xmlns="http://www.w3.org/2000/svg">
<g clip-path="url(#clip0_4058_235)">
<g clip-path="url(#clip1_4058_235)">
<path fill-rule="evenodd" clip-rule="evenodd" d="M76.1879 17.0841C76.056 17.0838 75.9272 17.0443 75.8178 16.9707C75.7085 16.897 75.6234 16.7925 75.5736 16.6704C75.5238 16.5483 75.5113 16.4142 75.5379 16.285C75.5645 16.1559 75.6289 16.0376 75.7229 15.9451C75.8169 15.8532 75.9346 15.7892 76.0629 15.7601C76.1922 15.7328 76.3267 15.7451 76.449 15.7952C76.5713 15.8453 76.6758 15.9309 76.7489 16.0411C76.822 16.1507 76.8613 16.2793 76.8619 16.4111C76.858 16.5886 76.7858 16.7578 76.6602 16.8834C76.5346 17.009 76.3654 17.0802 76.1879 17.0841ZM76.1879 15.6281C75.7519 15.6281 75.3999 15.9801 75.3999 16.4161C75.3999 16.8521 75.7519 17.1981 76.1879 17.1981C76.2922 17.1992 76.3957 17.1787 76.4919 17.1381C76.5883 17.1012 76.6759 17.0442 76.7489 16.9711C76.8209 16.8991 76.8799 16.8101 76.9219 16.7141C76.9639 16.6181 76.9819 16.5171 76.9819 16.4151C76.9819 16.3131 76.9639 16.2061 76.9219 16.1111C76.8799 16.0161 76.8269 15.9261 76.7489 15.8541C76.6746 15.781 76.5875 15.7224 76.4919 15.6811C76.3944 15.6458 76.2915 15.6275 76.1879 15.6271V15.6281ZM76.0389 16.3561V16.0991H76.1819C76.2659 16.0991 76.3609 16.1231 76.3609 16.2181C76.3609 16.3251 76.2599 16.3491 76.1639 16.3491H76.0389V16.3551V16.3561ZM76.5159 16.2311C76.5159 16.0401 76.3549 15.9681 76.1879 15.9681H75.8779V16.8571H76.0389V16.4871H76.1519L76.3609 16.8571H76.5579L76.3189 16.4691C76.4379 16.4391 76.5159 16.3561 76.5159 16.2301V16.2311ZM57.1169 8.37507H55.2429V10.3031H54.0788V11.8251H55.2429V14.8571C55.2429 15.9191 55.4999 17.3521 57.5409 17.3521C57.9409 17.3521 58.4419 17.2741 58.7409 17.1551L58.6929 15.6631C58.424 15.7567 58.1415 15.8051 57.8568 15.8061C57.3018 15.8061 57.1049 15.4181 57.1049 14.8451V11.8251H58.7639V10.3031H57.1049V8.37507H57.1169ZM71.6989 13.5391L74.1699 10.3041H71.9549L70.5399 12.2801L69.1609 10.3041H66.8629L69.3519 13.5391L66.5649 17.1921H68.8329L70.5159 14.8521L72.1869 17.1921H74.5089L71.6989 13.5391ZM49.7689 15.7591C48.5269 15.7591 47.9659 14.7021 47.9659 13.7181C47.9659 12.7511 48.5329 11.7061 49.7689 11.7061C51.0049 11.7061 51.5718 12.7511 51.5718 13.7181C51.5718 14.7031 51.0109 15.7591 49.7689 15.7591ZM49.7689 10.1061C47.6079 10.1061 46.0378 11.6281 46.0378 13.7171C46.0378 15.8841 47.6439 17.4061 49.7689 17.4061C51.8939 17.4061 53.4999 15.8721 53.4999 13.7171C53.4999 11.6221 51.9299 10.1061 49.7689 10.1061ZM64.2739 14.2731C64.2739 15.2941 63.6948 15.9381 62.6498 15.9381C62.2618 15.9381 61.5639 15.8191 61.5639 15.1981C61.5639 14.5351 62.3938 14.1241 64.0168 14.1241H64.2739V14.2731ZM63.0089 10.1061C61.9169 10.1061 60.8058 10.5481 60.0598 11.2401L61.0329 12.3321C61.4809 11.8841 62.2509 11.5981 62.8659 11.5981C63.5469 11.5981 64.2329 11.9381 64.2329 12.7501V12.8691C62.2389 12.8811 59.7029 13.1201 59.7029 15.1731C59.7029 16.6831 61.0159 17.3581 62.3109 17.3581C63.1229 17.3581 63.8209 16.8981 64.2509 16.3911H64.2929V17.1911H66.0839V13.0251C66.0899 11.9331 65.6889 10.1061 63.0089 10.1061ZM34.2619 11.3661H34.2318V10.3041H32.3988V17.1981H34.2969V13.5151C34.2969 13.4971 34.3809 11.8321 36.0279 11.8321C36.1649 11.8321 36.3979 11.8501 36.6189 11.9101V10.1731C36.4401 10.1363 36.2583 10.1162 36.0759 10.1131C35.3358 10.1071 34.6968 10.7221 34.2608 11.3671L34.2619 11.3661ZM21.2969 8.37507H19.4229V10.3031H18.2589V11.8251H19.4229V14.8571C19.4229 15.9191 19.6798 17.3521 21.7208 17.3521C22.1208 17.3521 22.6219 17.2741 22.9209 17.1551L22.8729 15.6631C22.604 15.7566 22.3215 15.805 22.0368 15.8061C21.4818 15.8061 21.2849 15.4181 21.2849 14.8451V11.8251H22.9439V10.3031H21.2849L21.2969 8.37507ZM28.8899 14.0761C28.8899 14.8881 28.3649 15.7591 27.3799 15.7591C26.6219 15.7591 26.2159 15.2161 26.2159 14.1061V10.2981H24.3179V14.5721C24.3179 15.9931 25.0279 17.3771 26.9199 17.3771C27.8149 17.3771 28.5609 16.6731 28.9429 16.1531H28.9729V17.1861H30.7879V10.2981H28.8899V14.0761ZM41.3829 15.7591C40.2369 15.7591 39.5499 14.7321 39.5499 13.7471C39.5499 12.7621 40.2479 11.7061 41.3829 11.7061C42.6129 11.7061 43.2219 12.7511 43.2219 13.7181C43.2219 14.7331 42.5588 15.7591 41.3829 15.7591ZM41.7589 10.1061C40.8868 10.1061 40.2489 10.4881 39.6459 11.0551H39.6099V6.50107H37.7118V17.1911H39.5269V16.2181H39.5569C39.9869 16.9221 40.8339 17.3881 41.7178 17.3881C43.6819 17.3881 45.1679 15.8481 45.1679 13.7231C45.1618 11.6221 43.6928 10.1061 41.7589 10.1061ZM0.297852 10.5141C0.297852 6.08507 3.87885 2.49707 8.30185 2.49707C12.7249 2.49707 16.3059 6.08407 16.3059 10.5131C16.3059 14.9421 12.7189 18.5291 8.30185 18.5291C3.88485 18.5291 0.297852 14.9431 0.297852 10.5141Z" fill="#615A56"/>
<path fill-rule="evenodd" clip-rule="evenodd" d="M6.51139 13.451C5.59281 12.7878 4.70835 12.0786 3.86139 11.326C3.55139 12.012 3.27039 12.711 3.02539 13.427C4.37439 14.573 6.17739 15.886 7.41839 16.626C9.02439 12.46 11.5314 9.74403 13.9304 7.85203C13.6257 7.20168 13.2094 6.60973 12.7004 6.10303C10.1312 8.0772 8.01956 10.5839 6.51039 13.451H6.51139Z" fill="#F9F9F4"/>
<path fill-rule="evenodd" clip-rule="evenodd" d="M24.855 3.76187H25.834V6.49587H26.711V3.76187H27.69V2.98587H24.855V3.76187ZM30.651 4.91987C30.651 5.38587 30.388 5.86887 29.833 5.86887C29.272 5.86887 29.177 5.34987 29.177 4.93187V2.99187H28.299V5.18287C28.299 5.89887 28.675 6.59787 29.588 6.59787C30.107 6.59787 30.519 6.28187 30.674 5.93487H30.686V6.49587H31.516V2.99187H30.639V4.91987H30.651ZM32.424 6.49587H33.301V2.99187H32.424V6.49587ZM26.276 2.53187C26.3458 2.53234 26.415 2.51887 26.4796 2.49226C26.5442 2.46564 26.6028 2.42641 26.652 2.37687C26.753 2.27587 26.807 2.14387 26.807 2.00087C26.8081 1.89552 26.7776 1.79226 26.7193 1.70451C26.6609 1.61677 26.5776 1.5486 26.48 1.50887C26.4154 1.48237 26.3461 1.4689 26.2763 1.46924C26.2064 1.46959 26.1374 1.48373 26.073 1.51087C26.0079 1.53572 25.9487 1.57404 25.8994 1.62333C25.8502 1.67261 25.8118 1.73175 25.787 1.79687C25.761 1.86149 25.7468 1.93024 25.745 1.99987C25.7466 2.14022 25.803 2.27437 25.9022 2.37362C26.0015 2.47287 26.1356 2.52931 26.276 2.53087V2.53187ZM35.331 2.53187C35.4009 2.53302 35.4703 2.51868 35.534 2.48987C35.5991 2.46502 35.6582 2.4267 35.7075 2.37741C35.7568 2.32813 35.7951 2.26899 35.82 2.20387C35.846 2.13925 35.8602 2.0705 35.862 2.00087C35.8611 1.87734 35.817 1.75803 35.7372 1.66369C35.6575 1.56935 35.5472 1.50597 35.4255 1.48456C35.3038 1.46315 35.1785 1.48508 35.0714 1.54653C34.9642 1.60798 34.882 1.70506 34.839 1.82087C34.7996 1.93155 34.7983 2.05224 34.8355 2.1637C34.8726 2.27517 34.946 2.37098 35.044 2.43587C35.1253 2.50005 35.2264 2.53398 35.33 2.53187H35.331ZM33.91 2.98587V3.76187H34.889V6.49587H35.766V3.76187H36.745V2.98587H33.91ZM19.417 6.49587H20.295V2.99187H19.417V6.49587ZM23.124 2.89087C22.605 2.89087 22.193 3.20687 22.038 3.55387H22.026V2.99287H21.196V6.49687H22.074V4.56887C22.074 4.10287 22.337 3.61987 22.892 3.61987C23.453 3.61987 23.549 4.13887 23.549 4.55687V6.50287H24.426V4.30587C24.414 3.58987 24.032 2.89087 23.125 2.89087H23.124Z" fill="#615A56"/>
</g>
</g>
<defs>
<clipPath id="clip0_4058_235">
<rect width="77" height="20" fill="white" transform="translate(0.139648)"/>
</clipPath>
<clipPath id="clip1_4058_235">
<rect width="77" height="20" fill="white" transform="translate(0.139648)"/>
</clipPath>
</defs>
</svg>
