<svg width="71" height="27" viewBox="0 0 71 27" fill="none" xmlns="http://www.w3.org/2000/svg">
<path fill-rule="evenodd" clip-rule="evenodd" d="M11.7636 26.5205C18.216 26.5205 22.8876 22.0812 22.8876 15.9644C22.8876 9.82166 18.216 5.4082 11.7636 5.4082C5.31119 5.4082 0.639648 9.82166 0.639648 15.9644C0.665458 22.0812 5.31119 26.5205 11.7636 26.5205ZM11.7636 20.4036C9.28588 20.4036 7.4792 18.5969 7.4792 15.9644C7.4792 13.3318 9.26007 11.5251 11.7636 11.5251C14.2671 11.5251 16.048 13.3576 16.048 15.9644C16.048 18.5969 14.2671 20.4036 11.7636 20.4036Z" fill="white"/>
<path fill-rule="evenodd" clip-rule="evenodd" d="M33.01 11.3179C33.01 11.3179 31.926 11.3179 31.3066 11.3179C31.0743 11.3179 30.8936 11.4985 30.8936 11.7308C30.8936 13.1503 30.8936 17.6154 30.8936 17.6154C30.8936 19.035 31.7453 19.8867 33.1907 19.8867C33.1907 19.8867 34.6618 19.8867 35.3845 19.8867C35.6168 19.8867 35.7974 20.0673 35.7974 20.2996V25.4357C35.7974 25.539 35.7458 25.6422 35.6684 25.7196C35.591 25.7971 35.4877 25.8487 35.3845 25.8487C34.223 25.8487 31.1001 25.8487 31.1001 25.8487C26.7125 25.8487 24.0541 23.1645 24.0541 18.751C24.0541 18.751 24.0541 13.2536 24.0541 11.6792C24.0541 11.4469 23.8734 11.2662 23.6411 11.2662H23.0475C22.8926 11.2662 22.7378 11.163 22.6603 11.0082C22.3506 10.2855 21.9635 9.61443 21.4989 9.02081C21.3699 8.86595 21.3957 8.63367 21.5247 8.47881C22.7636 7.16252 28.261 1.30373 29.1644 0.348775C29.2418 0.271346 29.345 0.219727 29.4741 0.219727C29.6806 0.219727 30.0161 0.219727 30.2742 0.219727C30.5065 0.219727 30.6871 0.400388 30.6871 0.632674C30.6871 1.69087 30.6871 4.52993 30.6871 5.58813C30.6871 5.69137 30.7388 5.79461 30.8162 5.87204C30.8936 5.94947 30.9969 6.00109 31.1001 6.00109C32.2615 6.00109 35.4361 6.00109 36.2362 6.00109C36.3395 6.00109 36.4685 5.94947 36.5459 5.87204C37.2686 5.09775 41.011 1.12306 41.7337 0.348775C41.8111 0.271346 41.9143 0.219727 42.0434 0.219727C42.2499 0.219727 42.5854 0.219727 42.8435 0.219727C43.0758 0.219727 43.2564 0.400388 43.2564 0.632674C43.2564 1.69087 43.2564 4.52993 43.2564 5.58813C43.2564 5.82041 43.4371 6.00109 43.6694 6.00109C45.0115 6.00109 49.2443 6.00109 51.4897 6.00109C51.6704 6.00109 51.8252 6.10432 51.8768 6.28499C51.9285 6.46566 51.8769 6.64632 51.722 6.74956C50.2508 7.83357 49.0894 9.27891 48.3925 10.9823C48.3409 11.1372 48.1861 11.2404 48.0054 11.2404C47.1795 11.2404 44.805 11.2404 43.8242 11.2404C43.592 11.2404 43.4113 11.4211 43.4113 11.6534C43.4113 13.0729 43.4113 17.538 43.4113 17.538C43.4113 18.9575 44.263 19.8092 45.7083 19.8092C45.7083 19.8092 47.1795 19.8092 47.9022 19.8092C48.1344 19.8092 48.3151 19.9899 48.3151 20.2222V25.3583C48.3151 25.4616 48.2635 25.5648 48.1861 25.6422C48.1086 25.7196 48.0054 25.7713 47.9022 25.7713C46.7407 25.7713 43.6178 25.7713 43.6178 25.7713C39.2301 25.7713 36.5717 23.0871 36.5717 18.6736C36.5717 18.6736 36.5717 13.1762 36.5717 11.6018C36.5717 11.4985 36.5201 11.3953 36.4427 11.3179C36.3653 11.2404 36.262 11.1888 36.1588 11.1888H33.01V11.3179Z" fill="white"/>
<path fill-rule="evenodd" clip-rule="evenodd" d="M59.5165 26.5205C65.969 26.5205 70.6405 22.0812 70.6405 15.9644C70.6405 9.82166 65.969 5.4082 59.5165 5.4082C53.0641 5.4082 48.3926 9.82166 48.3926 15.9644C48.3926 22.0812 53.0383 26.5205 59.5165 26.5205ZM59.5165 20.4036C57.0388 20.4036 55.2321 18.5969 55.2321 15.9644C55.2321 13.3318 57.013 11.5251 59.5165 11.5251C61.9943 11.5251 63.8009 13.3576 63.8009 15.9644C63.7751 18.5969 61.9943 20.4036 59.5165 20.4036Z" fill="white"/>
</svg>
