<svg width="84" height="20" viewBox="0 0 84 20" fill="none" xmlns="http://www.w3.org/2000/svg">
<g clip-path="url(#clip0_4058_71)">
<path d="M41.2822 9.8218L43.7712 13.0228H41.9822L39.7032 10.0318V13.0228H38.1982V6.9248H39.7032V9.6468L41.9002 6.9248H43.6772L41.2812 9.8218H41.2822ZM45.9412 11.7588H48.8382V13.0188H44.4362V6.9248H48.6982V8.1728H45.9412V9.2928H48.4302V10.5058H45.9412V11.7588ZM49.4452 6.9248V8.1728H51.3042V13.0218H52.7972V8.1728H54.6442V6.9248H49.4452Z" fill="#615A56"/>
<path d="M49.4452 6.92615V8.17415H51.3042V13.0232H52.7972V8.17415H54.6442V6.92615H49.4452ZM22.5612 10.6752L24.3972 13.0242H22.6702L20.4852 10.0802V13.0242H18.9922V6.92615H21.7382C23.0452 6.92615 23.9592 7.73115 23.9592 8.90215C23.9512 9.73015 23.4262 10.4772 22.5632 10.6752H22.5612ZM22.4682 8.92115C22.4682 8.46615 22.1062 8.15115 21.5932 8.15115H20.4962V9.69115H21.5932C22.1182 9.69515 22.4682 9.38015 22.4682 8.92115ZM28.0022 8.12815C29.0992 8.12815 29.9662 8.96815 29.9662 10.1272C29.9662 11.0372 29.5112 11.5852 28.9042 11.9982L29.7442 13.1182C30.7822 12.4062 31.4362 11.4262 31.4362 10.1272C31.4362 8.21015 29.9192 6.82115 28.0022 6.82115C26.0962 6.82115 24.5682 8.20915 24.5682 10.1272C24.5682 11.4222 25.2212 12.4062 26.2602 13.1182L27.1002 11.9982C26.4932 11.5902 26.0382 11.0412 26.0382 10.1272C26.0542 8.96815 26.9052 8.12815 28.0022 8.12815ZM36.7052 11.3292L37.4872 12.3912C36.9152 12.8932 36.2152 13.1142 35.3362 13.1142C33.6212 13.1142 32.1352 11.8662 32.1352 9.94815C32.1352 8.07715 33.6052 6.80615 35.3362 6.80615C36.1642 6.80615 36.9112 7.01615 37.4752 7.47115L36.6582 8.57915C36.2873 8.27492 35.8198 8.11352 35.3402 8.12415C34.3952 8.12415 33.6372 8.87115 33.6372 9.98315C33.6372 11.0682 34.3952 11.8072 35.3642 11.8072C35.9442 11.8072 36.3552 11.5972 36.7052 11.3292ZM57.0172 6.86815H57.9852L59.9372 9.70715L61.9012 6.86815H62.8932V12.9422H62.0412V8.12815L60.1012 10.9442H59.8332L57.8932 8.12815V12.9502H57.0412V6.87915L57.0182 6.86715L57.0172 6.86815ZM63.7882 10.7802C63.7882 9.47315 64.7332 8.52415 66.0672 8.52415C67.4202 8.52415 68.3462 9.46915 68.3462 10.7802C68.3462 12.0912 67.4242 13.0362 66.0672 13.0362C64.7372 13.0132 63.7882 12.0872 63.7882 10.7802ZM67.5052 10.7802C67.5052 9.90515 66.9222 9.29815 66.0702 9.29815C65.2422 9.29815 64.6582 9.90515 64.6582 10.7802C64.6582 11.6782 65.2652 12.2622 66.0702 12.2622C66.9182 12.2742 67.5052 11.6672 67.5052 10.7802ZM73.1562 10.3372V12.9312H72.3512V10.5122C72.3512 9.74215 71.9662 9.27515 71.2662 9.27515C70.5662 9.27515 70.0762 9.78815 70.0762 10.5352V12.9422H69.2712V8.61815H70.0762V9.22515C70.3682 8.77015 70.8812 8.52515 71.5112 8.52515C72.5492 8.53715 73.1562 9.17115 73.1562 10.3372ZM78.1342 11.0142H74.7122C74.7822 11.8192 75.3192 12.3212 76.0892 12.3212C76.6962 12.3212 77.0812 12.0532 77.3492 11.7842L77.9092 12.2162C77.5712 12.6242 77.0112 13.0212 76.0852 13.0212C74.7552 13.0212 73.8992 12.0532 73.8992 10.7892C73.8992 9.50615 74.8212 8.53315 76.0612 8.53315C77.3012 8.53315 78.1532 9.45515 78.1532 10.8942V11.0112H78.1332V11.0152L78.1342 11.0142ZM77.2782 10.4302C77.1852 9.66015 76.7412 9.21715 76.0412 9.21715C75.3642 9.21715 74.8042 9.67215 74.7112 10.4302H77.2782ZM82.6762 8.61815L80.9222 13.0792C80.4672 14.2692 79.9302 14.7942 79.0282 14.7942H78.9582L78.7832 14.0472H78.9002C79.4132 14.0472 79.7982 13.7792 80.1832 12.8572L80.2302 12.7642L78.4292 8.64215H79.3272L80.6452 11.8192L81.8352 8.64215H82.6632V8.61915H82.6752L82.6762 8.61815Z" fill="#615A56"/>
<path d="M4.03348 3.16699H10.9245C11.8228 3.16699 12.6843 3.52384 13.3195 4.15902C13.9546 4.79421 14.3115 5.6557 14.3115 6.55399V13.445C14.3115 13.8898 14.2239 14.3302 14.0537 14.7411C13.8835 15.1521 13.634 15.5255 13.3195 15.84C13.0049 16.1545 12.6316 16.404 12.2206 16.5742C11.8097 16.7444 11.3693 16.832 10.9245 16.832H4.03348C3.13528 16.8317 2.27393 16.4748 1.63881 15.8397C1.00368 15.2045 0.646749 14.3432 0.646484 13.445V6.55399C0.646484 5.6557 1.00333 4.79421 1.63851 4.15902C2.2737 3.52384 3.1352 3.16699 4.03348 3.16699Z" stroke="#615A56" stroke-width="0.087" stroke-linejoin="round"/>
<path d="M7.48168 7.31876C9.08768 7.31876 10.3437 8.54376 10.3437 10.2278C10.3437 11.5618 9.68668 12.3548 8.79168 12.9578L10.0127 14.5908C11.5367 13.5568 12.4897 12.1178 12.4897 10.2278C12.4897 7.43976 10.2687 5.40576 7.48068 5.40576C4.69268 5.40576 2.47168 7.44376 2.47168 10.2318C2.47168 12.1218 3.42868 13.5608 4.94868 14.5948L6.16968 12.9618C5.27868 12.3588 4.61768 11.5658 4.61768 10.2318C4.62168 8.54776 5.87368 7.31876 7.47968 7.31876H7.48168Z" fill="url(#paint0_linear_4058_71)"/>
</g>
<defs>
<linearGradient id="paint0_linear_4058_71" x1="8.56568" y1="2.75476" x2="6.86368" y2="14.5028" gradientUnits="userSpaceOnUse">
<stop stop-color="#4E4E54"/>
<stop offset="1" stop-color="#BBBBC8"/>
</linearGradient>
<clipPath id="clip0_4058_71">
<rect width="83" height="20" fill="white" transform="translate(0.139648)"/>
</clipPath>
</defs>
</svg>
