<svg width="79" height="30" viewBox="0 0 79 30" fill="none" xmlns="http://www.w3.org/2000/svg">
<g clip-path="url(#clip0_4126_246)">
<mask id="mask0_4126_246" style="mask-type:luminance" maskUnits="userSpaceOnUse" x="0" y="0" width="79" height="30">
<path d="M78.1694 0H0.75V29.2683H78.1694V0Z" fill="white"/>
</mask>
<g mask="url(#mask0_4126_246)">
<path d="M27.0028 23.9784C29.6205 26.8536 33.4993 28.6583 38.0439 28.6583H45.0177V14.4307H38.0439V21.955C33.525 21.955 30.403 18.4979 30.403 14.6747C30.403 11.5837 32.4159 8.81795 35.0861 7.80118C35.9488 7.4758 36.9347 7.3132 40.8745 7.3132H41.4898V0.609848H40.8745C36.7704 0.609848 35.6613 0.731719 34.7985 0.894216C31.7398 1.45671 29.0099 3.01056 26.9925 5.24634C24.2827 2.03003 20.1766 0 15.5264 0C7.27262 0 0.75 6.45961 0.75 14.5934C0.75 22.7679 7.27262 29.2683 15.5264 29.2683C20.1825 29.2683 24.2928 27.2204 27.0028 23.9784ZM46.0406 28.6583H53.0145V7.51642C55.6854 7.63839 58.7671 9.50866 58.7671 13.4117V28.6583H65.1663V13.4117C65.1663 9.50866 68.2482 7.63839 70.9188 7.51642V28.6583H77.8931V0.609848H70.9188C67.0973 0.609848 63.4026 2.64125 61.9665 4.67264C60.5309 2.64125 56.836 0.609848 53.0145 0.609848H46.0406V28.6583ZM15.5674 22.5242C11.2145 22.5242 7.72383 18.9858 7.72383 14.6747C7.72383 10.4043 11.2145 6.74398 15.5674 6.74398C19.8383 6.74398 23.4112 10.4043 23.4112 14.6747C23.4112 18.9858 19.8383 22.5242 15.5674 22.5242Z" fill="#515151"/>
</g>
</g>
<defs>
<clipPath id="clip0_4126_246">
<rect width="77.4194" height="30" fill="white" transform="translate(0.75)"/>
</clipPath>
</defs>
</svg>
