<svg width="37" height="35" viewBox="0 0 37 35" fill="none" xmlns="http://www.w3.org/2000/svg">
<g clip-path="url(#clip0_4196_245)">
<path d="M16.3457 14.6704C15.0431 14.6704 13.9266 15.5268 13.6289 16.7927H19.0996C18.7647 15.5268 17.6482 14.6704 16.3457 14.6704Z" fill="#6B6B73"/>
<path d="M28.217 14.6328C26.6911 14.6328 25.4258 15.8615 25.4258 17.4254C25.4258 18.952 26.6911 20.2179 28.217 20.2179C29.7428 20.2179 31.0082 18.9892 31.0082 17.4254C31.0082 15.8615 29.7428 14.6328 28.217 14.6328ZM28.217 18.4307C27.6587 18.4307 27.2121 17.9839 27.2121 17.4254C27.2121 16.8669 27.6587 16.42 28.217 16.42C28.7752 16.42 29.2218 16.8669 29.2218 17.4254C29.2218 17.9466 28.7752 18.4307 28.217 18.4307Z" fill="#6B6B73"/>
<path d="M18.3554 0C8.56759 0 0.640625 7.81915 0.640625 17.5C0.640625 27.1808 8.56759 35 18.3554 35C28.1431 35 36.0701 27.1808 36.0701 17.5C36.1073 7.81915 28.1431 0 18.3554 0ZM11.9542 21.4096C11.8054 21.4096 11.6565 21.3351 11.5449 21.2234L8.56759 18.2819L5.59033 21.2606C5.47868 21.3723 5.32982 21.4096 5.18095 21.4096C4.84601 21.4096 4.62272 21.1489 4.62272 20.8511C4.62272 20.7021 4.69715 20.5532 4.8088 20.4415L7.78606 17.4628L4.8088 14.484C4.69715 14.3723 4.62272 14.2234 4.62272 14.0745C4.62272 13.7394 4.88323 13.516 5.18095 13.516C5.32982 13.516 5.47868 13.5904 5.59033 13.6649L8.56759 16.6436L11.5449 13.6649C11.6565 13.5532 11.8054 13.4787 11.9542 13.4787C12.2892 13.4787 12.5497 13.7394 12.5497 14.0372C12.5497 14.1862 12.4753 14.3351 12.3636 14.4468L9.38634 17.4255L12.3636 20.4043C12.4753 20.516 12.5497 20.6649 12.5497 20.8138C12.5125 21.1489 12.252 21.4096 11.9542 21.4096ZM20.0673 17.5372C19.8812 17.7979 19.5463 17.9096 19.1369 17.9468H13.5545V17.984C13.5917 18.133 13.6289 18.2819 13.6662 18.4309C14.0011 19.3245 14.8943 20.2926 16.3457 20.2926C16.7923 20.2926 17.2389 20.1808 17.6483 19.9574C17.946 19.8085 18.2065 19.5851 18.4298 19.3245C18.5042 19.25 18.5414 19.1755 18.6159 19.1011C18.7647 18.8777 18.9508 18.8404 19.0997 18.8404C19.2113 18.8404 19.3602 18.8777 19.4718 18.9894C19.5835 19.0638 19.6579 19.2128 19.6951 19.3617C19.7323 19.5479 19.6579 19.734 19.5463 19.8457L19.509 19.883C19.1741 20.2926 18.8392 20.6277 18.5042 20.8511C18.1321 21.0745 17.7227 21.2606 17.3133 21.3723C16.9784 21.4468 16.6806 21.484 16.3457 21.484C16.1968 21.484 16.048 21.484 15.8619 21.4468C14.2244 21.2606 12.8846 20.0691 12.4753 18.4681C12.4008 18.1702 12.3636 17.8351 12.3636 17.5C12.3636 16.1968 12.9963 14.9681 14.0383 14.2234C14.7082 13.7394 15.5269 13.4787 16.3457 13.4787C17.09 13.4787 17.8343 13.7021 18.467 14.0745C19.3974 14.6702 19.9928 15.5638 20.2161 16.6809C20.3278 17.016 20.2534 17.3138 20.0673 17.5372ZM23.7144 14.7074C22.5607 14.8564 22.4491 15.4149 22.4491 16.7181V20.7766C22.4491 21.0745 22.1886 21.3351 21.8909 21.3351C21.5931 21.3351 21.3326 21.0745 21.3326 20.7766V14.1489C21.3326 13.8138 21.5931 13.5904 21.8909 13.5904C22.1514 13.5904 22.3747 13.7394 22.4491 14C22.8585 13.7021 23.3051 13.5532 23.7889 13.5532H23.9377C24.2727 13.5532 24.5332 13.8138 24.5332 14.1117C24.5332 14.4096 24.2727 14.6702 23.9377 14.6702C23.9005 14.6702 23.7889 14.6702 23.7144 14.7074ZM28.2175 21.3723C26.0218 21.3723 24.2354 19.5851 24.2354 17.4255C24.2354 15.2287 26.0218 13.4787 28.2175 13.4787C30.4133 13.4787 32.1996 15.266 32.1996 17.4255C32.1996 19.5851 30.4133 21.3723 28.2175 21.3723Z" fill="#6B6B73"/>
</g>
<defs>
<clipPath id="clip0_4196_245">
<rect width="35.4667" height="35" fill="white" transform="translate(0.640625)"/>
</clipPath>
</defs>
</svg>
