<svg width="111" height="30" viewBox="0 0 111 30" fill="none" xmlns="http://www.w3.org/2000/svg">
<g clip-path="url(#clip0_4126_242)">
<path d="M51.0958 16.1999C50.8956 14.5999 50.295 13.1999 49.4943 11.8999C48.5935 10.4999 47.3924 9.49994 45.891 8.79994C44.3897 8.09994 42.6881 7.79994 40.9866 7.79994C38.184 7.69994 35.5817 8.69994 33.5798 10.6999C31.6781 12.5999 30.7773 15.3999 30.7773 18.9999C30.7773 22.8999 31.8783 25.6999 33.9802 27.3999C35.982 29.0999 38.5844 29.9999 41.2869 29.9999C44.1895 30.1999 47.0921 28.9999 49.0939 26.8999C50.195 25.8999 50.8956 24.4999 51.0958 23.0999H45.2905C44.9902 23.5999 44.6899 24.0999 44.1895 24.4999C43.3888 25.1999 42.3879 25.4999 41.3869 25.4999C40.386 25.4999 39.3851 25.2999 38.5844 24.6999C37.2832 23.8999 36.5826 22.3999 36.5826 20.2999H51.396C51.296 18.8999 51.296 17.4999 51.0958 16.1999ZM36.5826 16.6999C36.6827 15.4999 37.1831 14.3999 37.9838 13.4999C38.7846 12.6999 39.8856 12.1999 40.9866 12.2999C42.0876 12.2999 43.1886 12.6999 43.9893 13.3999C44.8901 14.2999 45.3906 15.4999 45.3906 16.6999H36.5826ZM15.3633 18.5999H21.9693C21.7691 20.2999 20.8683 21.8999 19.5671 23.0999C18.1658 24.2999 16.4643 24.8999 14.6626 24.7999C12.6608 24.7999 10.659 23.9999 9.25773 22.5999C7.65628 21.1999 6.85555 18.6999 6.85555 15.1999C6.85555 11.6999 7.55619 9.19994 9.05755 7.39994C10.4588 5.69994 12.5607 4.79994 14.6626 4.79994C15.7636 4.79994 16.8646 4.99994 17.9657 5.39994C19.6672 6.09994 20.8683 7.59994 21.2687 9.39994H27.174C26.8737 6.69994 25.4725 4.29994 23.3706 2.59994C20.8683 0.799944 17.7655 -0.100056 14.6626 -5.58118e-05C10.8592 -0.100056 7.15582 1.39994 4.55346 4.19994C2.05118 6.89994 0.75 10.5999 0.75 15.1999C0.75 19.6999 2.05118 23.2999 4.55346 25.8999C6.95564 28.4999 10.3587 29.8999 13.8619 29.7999C15.8637 29.8999 17.8656 29.3999 19.6672 28.3999C20.8683 27.5999 21.8692 26.6999 22.77 25.5999L23.3706 29.0999H27.2741V13.7999H15.3633V18.5999ZM66.9101 7.79994C65.4088 7.69994 63.9074 8.19994 62.6062 9.09994C61.7054 9.89994 60.9047 10.8999 60.2041 11.9999V8.29994H54.599V29.2999H60.5043V19.2999C60.4042 17.9999 60.7045 16.6999 61.205 15.5999C62.0057 14.1999 63.6071 13.3999 65.9092 13.3999H66.6099C66.9101 13.3999 67.2104 13.3999 67.6108 13.4999V7.79994H67.1103H66.9101ZM81.7236 16.6999C79.8219 16.3999 77.8201 15.7999 76.0184 15.1999C75.518 14.8999 75.2177 14.3999 75.2177 13.7999C75.2177 13.2999 75.518 12.7999 76.0184 12.4999C76.8192 12.0999 77.72 11.8999 78.6208 11.8999C79.7218 11.7999 80.9229 12.1999 81.7236 12.9999C82.124 13.4999 82.3242 14.0999 82.3242 14.6999H87.8292C87.629 12.0999 86.6281 10.2999 85.0266 9.29994C83.1249 8.19994 80.8228 7.59994 78.6208 7.69994C76.3187 7.59994 74.0166 8.29994 72.215 9.79994C70.7136 11.0999 69.9129 12.8999 69.9129 14.7999C69.8128 16.1999 70.3132 17.5999 71.4142 18.5999C72.9156 19.6999 74.6171 20.4999 76.4188 20.7999C78.4206 21.1999 80.3223 21.6999 82.124 22.4999C82.6244 22.7999 82.9247 23.2999 82.9247 23.8999C82.9247 24.4999 82.5243 25.0999 81.9238 25.2999C81.1231 25.6999 80.2222 25.7999 79.3214 25.7999C77.5198 25.7999 76.2186 25.3999 75.518 24.6999C75.0175 24.0999 74.8173 23.3999 74.7172 22.5999H69.1122C69.0121 24.5999 69.9129 26.5999 71.5143 27.8999C73.1158 29.2999 75.518 29.9999 78.821 29.9999C82.0239 29.9999 84.4261 29.2999 86.0275 27.9999C87.5289 26.6999 88.4297 24.8999 88.3296 22.8999C88.3296 21.3999 87.8292 19.9999 86.7282 18.8999C85.2268 17.7999 83.5253 16.9999 81.7236 16.6999ZM110.55 12.8999C110.45 11.9999 110.049 11.1999 109.449 10.4999C108.748 9.59994 107.847 8.89994 106.846 8.39994C105.745 7.89994 104.544 7.69994 103.343 7.69994C102.242 7.69994 101.041 7.89994 100.04 8.39994C98.8392 9.09994 97.8383 9.89994 97.2377 10.9999V0.999944H91.7327V29.2999H97.2377V17.8999C97.1376 16.3999 97.538 14.9999 98.3387 13.6999C99.1394 12.6999 100.341 12.1999 101.642 12.1999C102.843 12.0999 103.944 12.5999 104.544 13.6999C104.945 14.4999 105.145 15.4999 105.145 16.3999V29.1999H110.75V16.9999C110.75 15.5999 110.65 14.2999 110.55 12.8999Z" fill="#5D5D5D"/>
</g>
<defs>
<clipPath id="clip0_4126_242">
<rect width="110" height="30" fill="white" transform="translate(0.75)"/>
</clipPath>
</defs>
</svg>
