<svg width="59" height="30" viewBox="0 0 59 30" fill="none" xmlns="http://www.w3.org/2000/svg">
<g clip-path="url(#clip0_4196_746)">
<path d="M28.0042 0C27.061 -1.52845e-08 26.1269 0.185817 25.2555 0.546841C24.3841 0.907864 23.5923 1.43702 22.9254 2.10409C22.2584 2.77116 21.7294 3.56308 21.3686 4.43462C21.0077 5.30617 20.8221 6.24026 20.8223 7.18355V17.037H30.6753C32.5802 17.037 34.4071 16.2804 35.7542 14.9335C37.1012 13.5866 37.8582 11.7597 37.8585 9.85476V0H28.0042ZM33.8222 3.02288C33.8223 3.33201 33.7616 3.63815 33.6434 3.92379C33.5253 4.20944 33.352 4.469 33.1334 4.68764C32.9149 4.90629 32.6555 5.07974 32.3699 5.19808C32.0843 5.31641 31.7782 5.37732 31.4691 5.37732H28.9454V7.39689H32.3548V9.76038H28.9622V14.6283H26.1683V2.40874H28.9454V4.62483C28.9804 4.02546 29.2431 3.46213 29.6798 3.05015C30.1166 2.63817 30.6942 2.40871 31.2946 2.40874H33.8261L33.8222 3.02288Z" fill="#6B6B73"/>
<path d="M5.97852 23.402V29.7839H7.64504V26.293C7.64504 26.0952 7.64504 25.4927 7.88939 25.2069C8.017 25.0625 8.17529 24.9484 8.35269 24.873C8.53008 24.7976 8.72208 24.7628 8.91465 24.7712H8.98446V23.1938H8.92628C8.43369 23.1486 7.96697 23.3361 7.77562 23.5377C7.74071 23.5727 7.70839 23.6037 7.67736 23.6321C7.61852 23.6862 7.56284 23.7436 7.51058 23.8041V23.402H5.97852Z" fill="#6B6B73"/>
<path d="M22.765 29.7802V26.2751C22.765 25.3235 23.2059 24.7714 23.9764 24.7611C24.1207 24.7551 24.2646 24.7787 24.3994 24.8305C24.5341 24.8823 24.6568 24.9612 24.7599 25.0623C25.0249 25.3209 25.1659 25.7359 25.1659 26.2544V29.7802H26.8001V25.8045C26.8001 24.4068 25.8524 23.3156 24.5453 23.2095C23.82 23.1436 23.2227 23.3298 22.7689 23.7616L22.7546 23.7771V21.2856H21.1191L21.1295 29.7802H22.765Z" fill="#6B6B73"/>
<path d="M31.9364 25.1373L31.8847 25.1192L31.939 25.0856C32.6048 24.6602 32.822 23.7926 32.6888 23.1979C32.4303 21.9644 31.4502 21.2856 29.9285 21.2856H27.6621L27.6737 29.7802H30.0539C31.8174 29.7802 32.9099 29.0277 33.2124 27.6055C33.3999 26.7237 32.8828 25.4528 31.9364 25.1373ZM29.3429 22.9199H30.0733C30.3552 22.9199 31.0158 22.9897 31.0443 23.631C31.0521 23.7333 31.0386 23.836 31.0048 23.9328C30.971 24.0296 30.9175 24.1183 30.8478 24.1935C30.5969 24.452 30.1625 24.5063 29.8432 24.5063H29.3429V22.9199ZM31.3287 27.7439C31.0805 28.0102 30.6099 28.1447 29.9272 28.1447H29.3558V26.1173H30.2479C30.8142 26.1173 31.4903 26.3617 31.5317 27.0508C31.55 27.1741 31.5414 27.2998 31.5066 27.4194C31.4718 27.539 31.4115 27.6497 31.33 27.7439H31.3287Z" fill="#6B6B73"/>
<path d="M39.2567 24.1872C38.9439 23.8748 38.5717 23.6282 38.162 23.4621C37.7523 23.296 37.3134 23.2137 36.8714 23.2201C35.988 23.2385 35.1466 23.601 34.5265 24.2304C33.9063 24.8598 33.5562 25.7064 33.5508 26.59C33.5455 27.4736 33.8851 28.3245 34.4976 28.9614C35.11 29.5983 35.9469 29.971 36.83 30.0002H36.905C37.7842 29.9983 38.627 29.6493 39.2503 29.0292C39.5762 28.7161 39.8357 28.3404 40.0131 27.9246C40.1905 27.5089 40.2823 27.0616 40.2829 26.6096C40.2835 26.1576 40.1929 25.71 40.0166 25.2938C39.8403 24.8776 39.5819 24.5012 39.2567 24.1872ZM36.9696 28.406C36.739 28.4124 36.5094 28.3718 36.2949 28.2867C36.0804 28.2015 35.8855 28.0737 35.722 27.9108C35.5462 27.7426 35.4058 27.5408 35.3093 27.3174C35.2127 27.094 35.1618 26.8535 35.1596 26.6101C35.156 26.1477 35.3332 25.7021 35.6535 25.3686C35.9738 25.035 36.4118 24.8398 36.874 24.8246H36.9115C37.3732 24.8272 37.8156 25.0103 38.1441 25.3348C38.4727 25.6592 38.6613 26.0993 38.6698 26.561C38.6816 27.0292 38.5108 27.4835 38.1934 27.8279C37.8761 28.1723 37.4372 28.3796 36.9696 28.406Z" fill="#6B6B73"/>
<path d="M46.4013 24.1867C46.0886 23.8741 45.7164 23.6274 45.3067 23.4613C44.8969 23.2951 44.458 23.213 44.0159 23.2196C43.1325 23.238 42.2912 23.6005 41.671 24.2299C41.0508 24.8593 40.7008 25.7059 40.6954 26.5896C40.69 27.4732 41.0297 28.324 41.6421 28.9609C42.2546 29.5979 43.0914 29.9706 43.9745 29.9998H44.0495C44.9287 29.9981 45.7717 29.6491 46.3948 29.0288C46.7208 28.7156 46.9802 28.3399 47.1576 27.9242C47.335 27.5084 47.4268 27.0612 47.4274 26.6091C47.428 26.1571 47.3375 25.7096 47.1611 25.2934C46.9848 24.8772 46.7264 24.5008 46.4013 24.1867ZM45.3359 27.8354C45.1802 28.0079 44.9913 28.1474 44.7805 28.2453C44.5697 28.3433 44.3413 28.3978 44.109 28.4056C43.8783 28.4118 43.6488 28.3711 43.4344 28.286C43.2199 28.2009 43.025 28.0731 42.8614 27.9104C42.6865 27.7417 42.5471 27.5397 42.4514 27.3163C42.3557 27.0929 42.3056 26.8527 42.3041 26.6097C42.3005 26.1472 42.4778 25.7017 42.798 25.3681C43.1183 25.0345 43.5563 24.8393 44.0185 24.8241H44.056C44.5177 24.8268 44.9601 25.0099 45.2887 25.3343C45.6172 25.6588 45.8059 26.0989 45.8143 26.5606C45.8279 27.0318 45.6562 27.4895 45.3359 27.8354Z" fill="#6B6B73"/>
<path d="M49.4615 26.8877L49.605 26.7623H49.733L51.5831 29.811H53.3595L50.8358 25.6374L53.3311 23.3864H51.097L49.4783 24.8423H49.4615V21.2544H47.8945V29.811H49.4615V26.8877Z" fill="#6B6B73"/>
<path d="M58.0435 27.8733C58.0435 26.5157 56.9381 26.1653 56.0499 25.8848C55.4901 25.7077 55.0066 25.5551 55.0066 25.1956C55.0066 24.9487 55.2121 24.7948 55.5444 24.7948C55.7419 24.7909 55.9338 24.8599 56.0835 24.9888L56.152 25.056L57.2432 23.9803L57.1721 23.9118C56.962 23.7093 56.7132 23.5511 56.4407 23.4467C56.1682 23.3423 55.8774 23.2938 55.5858 23.3041C54.2774 23.3041 53.4331 24.063 53.4331 25.237C53.4331 26.6373 54.5114 26.9178 55.3789 27.1493C55.9879 27.3096 56.4701 27.4363 56.4701 27.8733C56.4701 28.2483 56.1171 28.5094 55.6142 28.5094C55.1113 28.5094 54.7997 28.2509 54.7997 27.8462V27.7492H53.1836V27.8462C53.1836 29.0939 54.2063 30.0002 55.6142 30.0002C57.0222 30.0002 58.0435 29.1055 58.0435 27.8733Z" fill="#6B6B73"/>
<path d="M2.30844 22.9637V24.8152H5.06874V26.4482H2.32008V29.7801H0.640625V21.2842H5.23811V22.9637H2.30844Z" fill="#6B6B73"/>
<path d="M15.6741 26.6256C15.6741 24.5375 14.5105 23.2407 12.6255 23.2407C10.7056 23.2407 9.31055 24.6061 9.31055 26.486C9.31055 28.4707 10.7172 29.9692 12.5841 29.9692C13.0741 29.9719 13.5595 29.8745 14.0106 29.6831C14.4616 29.4917 14.8689 29.2102 15.2074 28.8559L15.2539 28.8068L14.0903 27.7802L14.0477 27.8306C13.8718 28.0487 13.649 28.2242 13.3958 28.344C13.1425 28.4638 12.8655 28.5248 12.5854 28.5224C11.7166 28.5224 11.0753 27.9625 10.9111 27.0626L10.8866 26.9333H15.6702L15.6741 26.6256ZM11.0197 25.524L11.0663 25.4387C11.3546 24.9448 11.8821 24.6733 12.5505 24.6733C13.2577 24.6733 13.7994 24.9965 13.9895 25.524H11.0197Z" fill="#6B6B73"/>
<path d="M18.7413 25.8848C18.1815 25.7077 17.6979 25.5551 17.6979 25.1957C17.6979 24.9487 17.9048 24.7949 18.2371 24.7949C18.4343 24.7911 18.626 24.8597 18.7762 24.9875L18.8434 25.056L19.9346 23.9803L19.8635 23.9118C19.6537 23.7092 19.4052 23.551 19.1328 23.4466C18.8605 23.3422 18.5699 23.2937 18.2784 23.3041C16.97 23.3041 16.1245 24.0631 16.1245 25.2371C16.1245 26.6373 17.2041 26.9179 18.0703 27.1493C18.6805 27.3096 19.1615 27.4363 19.1615 27.8733C19.1615 28.247 18.8098 28.5082 18.3056 28.5082C17.8014 28.5082 17.4911 28.2496 17.4911 27.8462V27.7492H15.8711V27.8462C15.8711 29.0939 16.8925 30.0002 18.3004 30.0002C19.7084 30.0002 20.7297 29.1055 20.7297 27.8733C20.7297 26.5145 19.6243 26.1654 18.7413 25.8848Z" fill="#6B6B73"/>
</g>
<defs>
<clipPath id="clip0_4196_746">
<rect width="57.4" height="30" fill="white" transform="translate(0.640625)"/>
</clipPath>
</defs>
</svg>
