<svg width="76" height="15" viewBox="0 0 76 15" fill="none" xmlns="http://www.w3.org/2000/svg">
<g clip-path="url(#clip0_4196_780)">
<path d="M73.7156 6.81649V11.7067H71.9094V7.13961C71.9094 6.02734 71.4281 5.40597 70.4906 5.40597C69.5531 5.40597 68.9344 6.05841 68.7594 7.15203C68.7094 7.41301 68.6969 7.81691 68.6969 8.66819V11.7005H66.8906V3.93331H68.4906C68.4969 4.00166 68.5344 4.6976 68.5344 4.7411C68.5344 4.79702 68.6031 4.82809 68.6469 4.79081C69.3094 4.26885 70.0406 3.78418 71.0594 3.78418C72.7344 3.78418 73.7156 4.90887 73.7156 6.81649Z" fill="#6B6B73"/>
<path d="M63.9785 3.93917L63.9223 4.82774C63.916 4.88366 63.8473 4.91473 63.8098 4.87745C63.591 4.67239 62.7848 3.79004 61.416 3.79004C59.4535 3.79004 58.0098 5.47397 58.0098 7.76063C58.0098 10.0784 59.441 11.7685 61.416 11.7685C62.7348 11.7685 63.541 10.9172 63.691 10.7308C63.7348 10.6811 63.816 10.7122 63.816 10.7743C63.7973 11.0104 63.766 11.6007 63.566 12.104C63.316 12.7378 62.7535 13.3282 61.6223 13.3282C60.691 13.3282 59.866 12.974 59.0848 12.2159L58.141 13.5021C58.9973 14.4653 60.3473 15.0059 61.816 15.0059C64.1785 15.0059 65.5973 13.3965 65.5973 10.7681V3.93917H63.9785ZM61.8035 10.1405C60.6348 10.1405 59.8098 9.13387 59.8098 7.76063C59.8098 6.38739 60.6348 5.40561 61.8035 5.40561C62.9723 5.40561 63.7973 6.38117 63.7973 7.76063C63.791 9.14008 62.966 10.1405 61.8035 10.1405Z" fill="#6B6B73"/>
<path d="M54.2348 9.40119C54.2348 10.8739 52.991 11.8618 51.166 11.8618C49.7348 11.8618 48.4598 11.3088 47.6973 10.5197L48.291 9.11536C48.866 9.6311 49.791 10.3705 51.1098 10.3705C52.0285 10.3705 52.5598 9.96664 52.5598 9.45712C52.5598 8.86681 51.8285 8.71147 50.9535 8.54369C49.7098 8.28272 48.0598 7.86018 48.0598 6.17625C48.0598 4.76573 49.2098 3.79639 50.9098 3.79639C52.216 3.79639 53.341 4.29349 54.116 4.93972L53.2285 6.17625C52.4785 5.58595 51.691 5.2939 50.9098 5.2939C50.1285 5.2939 49.741 5.61702 49.741 6.08305C49.741 6.73549 50.5848 6.90326 51.2035 7.02754C52.7598 7.3258 54.2348 7.79183 54.2348 9.40119Z" fill="#6B6B73"/>
<path d="M27.823 3.78418C25.6168 3.78418 24.0293 5.48675 24.0293 7.82312C24.0293 10.1595 25.6168 11.8621 27.823 11.8621C30.0293 11.8621 31.623 10.1595 31.623 7.82312C31.623 5.48675 30.0355 3.78418 27.823 3.78418ZM27.823 10.2341C26.6543 10.2341 25.8293 9.24607 25.8293 7.81691C25.8293 6.39396 26.6355 5.39976 27.823 5.39976C29.0043 5.39976 29.8168 6.38774 29.8168 7.81691C29.8168 9.24607 28.9918 10.2341 27.823 10.2341Z" fill="#6B6B73"/>
<path d="M32.2598 7.82312C32.2598 5.51782 33.8473 3.78418 35.966 3.78418C37.6473 3.78418 38.8785 4.62304 39.4535 6.20133L37.8535 6.80406C37.416 5.8285 36.841 5.41218 35.9723 5.41218C34.8848 5.41218 34.0723 6.43124 34.0723 7.82933C34.0723 9.22121 34.8785 10.2465 35.9723 10.2465C36.8473 10.2465 37.416 9.83016 37.8535 8.8546L39.4535 9.45734C38.8785 11.0356 37.6473 11.8745 35.966 11.8745C33.8473 11.8621 32.2598 10.1284 32.2598 7.82312Z" fill="#6B6B73"/>
<path d="M22.6039 0.329102C22.5727 0.329102 22.5352 0.335315 22.5039 0.353957L21.3289 0.975332C21.3039 0.987759 21.2914 1.01261 21.2914 1.03747V4.73465C21.2914 4.79679 21.2164 4.82164 21.1727 4.78436C20.9977 4.63523 20.5914 4.25619 20.0289 3.99522C19.7352 3.85851 19.3039 3.78395 18.9102 3.78395C16.9352 3.78395 15.5039 5.48652 15.5039 7.82289C15.5039 10.1593 16.9352 11.8618 18.9102 11.8618C19.9477 11.8618 20.7289 11.3212 21.2039 10.8366C21.2352 10.8055 21.2539 10.7868 21.2852 10.7558C21.3289 10.7123 21.4039 10.7371 21.4039 10.7993L21.4664 11.7065H23.0977V0.378812C23.0977 0.353957 23.0789 0.329102 23.0477 0.329102H22.6039ZM19.2977 10.2338C18.1164 10.2338 17.3039 9.24584 17.3039 7.81667C17.3039 6.38751 18.1352 5.40574 19.2977 5.40574C20.4664 5.40574 21.2914 6.39372 21.2914 7.82289C21.2914 9.24584 20.4852 10.2338 19.2977 10.2338Z" fill="#6B6B73"/>
<path d="M56.3602 3.96417L55.2289 4.56069C55.2039 4.57312 55.1914 4.59798 55.1914 4.62283V11.7065H56.9977V3.98282C56.9977 3.95796 56.9789 3.93311 56.9477 3.93311H56.4602C56.4227 3.93932 56.3914 3.94553 56.3602 3.96417Z" fill="#6B6B73"/>
<path d="M56.0914 2.67801C56.6914 2.67801 57.1789 2.19334 57.1789 1.59682C57.1789 1.0003 56.6914 0.515625 56.0914 0.515625C55.4914 0.515625 55.0039 1.0003 55.0039 1.59682C55.0039 2.19334 55.4914 2.67801 56.0914 2.67801Z" fill="#6B6B73"/>
<path d="M47.0469 3.93311V8.15224C47.0469 11.3523 45.2469 11.8556 43.6406 11.8556C42.0344 11.8556 40.2344 11.3461 40.2344 8.15224V3.93311H42.0344V8.59963C42.0344 9.05324 42.1469 10.2339 43.6406 10.2339C45.1344 10.2339 45.2469 9.05945 45.2469 8.59963V3.93311H47.0469Z" fill="#6B6B73"/>
<path d="M74.7469 10.9111V11.023H74.4906V11.7003H74.3656V11.023H74.1094V10.9111H74.7469ZM75.6406 11.7003H75.5156V11.0789L75.2719 11.5449H75.2031L74.9594 11.0851V11.7003H74.8344V10.9111H74.9969L75.2344 11.3647L75.4719 10.9111H75.6344L75.6406 11.7003Z" fill="black"/>
<path d="M9.35938 8.66814V11.7439C9.35938 11.9055 9.22813 12.036 9.06563 12.036H0.934375C0.771875 12.036 0.640625 11.9055 0.640625 11.7439L0.640625 3.66607C0.640625 3.50451 0.771875 3.37402 0.934375 3.37402H4.02187V8.3761C4.02187 8.53765 4.15313 8.66814 4.31562 8.66814H9.35938Z" fill="#6B6B73"/>
<path d="M12.7461 4.33114C12.7461 6.91606 11.2273 8.66212 9.35859 8.66834V5.41233C9.35859 5.31912 9.32109 5.22592 9.25234 5.16378L7.55234 3.47364C7.48359 3.40529 7.39609 3.36801 7.30234 3.36801H4.02734V0.298411C4.02734 0.136853 4.15859 0.00636425 4.32109 0.00636425L8.90234 0.00636425C11.0773 0.000150492 12.7461 1.74 12.7461 4.33114Z" fill="#6B6B73"/>
<path d="M9.25234 5.15772C9.32109 5.22608 9.35859 5.31307 9.35859 5.40628V8.66228H4.32109C4.15859 8.66228 4.02734 8.53179 4.02734 8.37023V3.36816H7.30234C7.39609 3.36816 7.48984 3.40545 7.55234 3.4738L9.25234 5.15772Z" fill="black"/>
</g>
<defs>
<clipPath id="clip0_4196_780">
<rect width="75" height="15" fill="white" transform="translate(0.640625)"/>
</clipPath>
</defs>
</svg>
