<svg width="31" height="30" viewBox="0 0 31 30" fill="none" xmlns="http://www.w3.org/2000/svg">
<g clip-path="url(#clip0_4196_807)">
<g clip-path="url(#clip1_4196_807)">
<mask id="mask0_4196_807" style="mask-type:luminance" maskUnits="userSpaceOnUse" x="0" y="0" width="31" height="30">
<path d="M0.640625 0H30.6303V29.9997H0.640625V0Z" fill="white"/>
</mask>
<g mask="url(#mask0_4196_807)">
<path d="M27.3829 17.7474C27.3641 19.1471 26.8008 20.4859 25.8102 21.4852C26.0234 22.3342 26.973 23.2895 28.0353 23.7364C32.3145 19.4371 30.9029 12.1043 25.2835 9.75779C22.6227 8.64655 18.9823 8.82905 16.5551 10.7337V3.8291H13.3294V9.3653H0.742386V12.5821H12.0255L11.7987 12.7946L0.964069 22.4549L0.738281 22.667V25.8839H16.6451C15.2882 25.0951 14.2988 23.9958 13.4522 22.6767H5.57899L13.3189 16.0909C13.3189 16.0909 13.2008 19.2439 13.9906 21.0077C17.2192 28.1757 25.6252 26.7536 29.1371 23.9698C28.1278 24.2314 27.074 24.2761 26.0461 24.0998C25.0174 23.9236 24.0388 23.5315 23.1759 22.9498C19.3928 23.8436 15.8822 20.5321 16.576 16.7146C16.7649 15.6492 17.2705 14.6638 18.0283 13.8843C18.9141 12.9725 20.0979 12.401 21.3693 12.2715C24.5524 11.944 27.4507 14.5402 27.3829 17.7474Z" fill="#6B6B73"/>
<path d="M24.6219 16.9166C24.476 16.8829 24.3237 16.8868 24.1798 16.928C24.0358 16.9691 23.9049 17.0461 23.7996 17.1516C23.6934 17.2573 23.6161 17.388 23.5748 17.5313C23.5336 17.6747 23.5298 17.8261 23.5637 17.9713C23.5991 18.1238 23.6749 18.2641 23.7832 18.3775C23.8636 18.4625 23.9604 18.5305 24.068 18.5776C24.1756 18.6247 24.2916 18.6499 24.4092 18.6516C24.5268 18.6533 24.6436 18.6316 24.7525 18.5877C24.8614 18.5437 24.9603 18.4785 25.0432 18.396C25.1554 18.2851 25.2356 18.1465 25.2755 17.9947C25.3154 17.8428 25.3136 17.6832 25.2702 17.5322C25.2272 17.3815 25.1444 17.2448 25.0302 17.1363C24.9165 17.0281 24.7755 16.9523 24.6219 16.9166ZM20.0818 17.1488C19.918 16.9862 19.6958 16.8944 19.4638 16.8936C19.2318 16.8927 19.0089 16.9829 18.8439 17.1444C18.7341 17.2513 18.6541 17.3844 18.6118 17.531C18.5689 17.6812 18.5669 17.84 18.6062 17.9911C18.6455 18.1423 18.7246 18.2805 18.8354 18.3916C18.9173 18.4737 19.015 18.5387 19.1228 18.5828C19.2305 18.6269 19.346 18.6493 19.4626 18.6485C19.5792 18.6477 19.6945 18.6238 19.8016 18.5782C19.9087 18.5327 20.0055 18.4663 20.0862 18.3832C20.1936 18.2735 20.2703 18.1381 20.309 17.9902C20.3476 17.8424 20.3468 17.6872 20.3067 17.5397C20.267 17.3925 20.1896 17.2576 20.0818 17.1488ZM22.1382 16.9166C21.9923 16.883 21.8402 16.8869 21.6963 16.928C21.5524 16.9692 21.4215 17.0462 21.3162 17.1516C21.2105 17.2576 21.1334 17.3883 21.0922 17.5315C21.051 17.6748 21.0469 17.826 21.0803 17.9713C21.1157 18.1238 21.1915 18.2641 21.2995 18.3775C21.3799 18.4625 21.4768 18.5306 21.5844 18.5778C21.692 18.6249 21.808 18.65 21.9257 18.6518C22.0433 18.6535 22.1601 18.6317 22.2691 18.5878C22.378 18.5438 22.4769 18.4786 22.5598 18.396C22.6432 18.3128 22.7092 18.2141 22.7537 18.1055C22.7983 17.9969 22.8206 17.8806 22.8194 17.7634C22.8182 17.6463 22.7935 17.5305 22.7467 17.4228C22.6999 17.3152 22.632 17.2178 22.5469 17.1363C22.433 17.0281 22.2919 16.9522 22.1382 16.9166Z" fill="#6B6B73"/>
</g>
</g>
</g>
<defs>
<clipPath id="clip0_4196_807">
<rect width="30" height="30" fill="white" transform="translate(0.640625)"/>
</clipPath>
<clipPath id="clip1_4196_807">
<rect width="29.9998" height="29.9997" fill="white" transform="translate(0.640625)"/>
</clipPath>
</defs>
</svg>
