<svg width="20" height="20" viewBox="0 0 20 20" fill="none" xmlns="http://www.w3.org/2000/svg">
<path d="M8.72539 11.05L7.22539 9.57502C7.04206 9.39169 6.83372 9.30002 6.60039 9.30002C6.36706 9.30002 6.15872 9.39169 5.97539 9.57502C5.79206 9.75836 5.70039 9.97086 5.70039 10.2125C5.70039 10.4542 5.79206 10.6667 5.97539 10.85L8.10039 12.975C8.28372 13.1584 8.49206 13.25 8.72539 13.25C8.95872 13.25 9.16706 13.1584 9.35039 12.975L14.0254 8.30002C14.2087 8.11669 14.3004 7.90419 14.3004 7.66252C14.3004 7.42086 14.2087 7.20836 14.0254 7.02502C13.8421 6.84169 13.6337 6.75002 13.4004 6.75002C13.1671 6.75002 12.9587 6.84169 12.7754 7.02502L8.72539 11.05ZM10.0004 19.6C8.68372 19.6 7.44206 19.35 6.27539 18.85C5.10872 18.35 4.08789 17.6625 3.21289 16.7875C2.33789 15.9125 1.65039 14.8917 1.15039 13.725C0.650391 12.5584 0.400391 11.3167 0.400391 10C0.400391 8.66669 0.650391 7.42086 1.15039 6.26252C1.65039 5.10419 2.33789 4.08752 3.21289 3.21252C4.08789 2.33752 5.10872 1.65002 6.27539 1.15002C7.44206 0.650024 8.68372 0.400024 10.0004 0.400024C11.3337 0.400024 12.5796 0.650024 13.7379 1.15002C14.8962 1.65002 15.9129 2.33752 16.7879 3.21252C17.6629 4.08752 18.3504 5.10419 18.8504 6.26252C19.3504 7.42086 19.6004 8.66669 19.6004 10C19.6004 11.3167 19.3504 12.5584 18.8504 13.725C18.3504 14.8917 17.6629 15.9125 16.7879 16.7875C15.9129 17.6625 14.8962 18.35 13.7379 18.85C12.5796 19.35 11.3337 19.6 10.0004 19.6ZM10.0004 17.8C12.1671 17.8 14.0087 17.0417 15.5254 15.525C17.0421 14.0084 17.8004 12.1667 17.8004 10C17.8004 7.83336 17.0421 5.99169 15.5254 4.47502C14.0087 2.95836 12.1671 2.20002 10.0004 2.20002C7.83372 2.20002 5.99206 2.95836 4.47539 4.47502C2.95872 5.99169 2.20039 7.83336 2.20039 10C2.20039 12.1667 2.95872 14.0084 4.47539 15.525C5.99206 17.0417 7.83372 17.8 10.0004 17.8Z" fill="#233ED9"/>
</svg>
